<svg xmlns="http://www.w3.org/2000/svg" xmlns:xlink="http://www.w3.org/1999/xlink" width="1920" zoomAndPan="magnify" viewBox="0 0 1440 809.999993" height="1080" preserveAspectRatio="xMidYMid meet" version="1.0"><defs><clipPath id="91add690f6"><path d="M 617.03125 486.707031 L 708 486.707031 L 708 566.292969 L 617.03125 566.292969 Z M 617.03125 486.707031 " clip-rule="nonzero"/></clipPath><clipPath id="7c5640458d"><path d="M 662.511719 566.292969 L 707.988281 486.707031 L 617.03125 486.707031 Z M 662.511719 566.292969 " clip-rule="nonzero"/></clipPath><clipPath id="97be0cccfb"><path d="M 598.5 283.5 L 841.5 283.5 L 841.5 526.5 L 598.5 526.5 Z M 598.5 283.5 " clip-rule="nonzero"/></clipPath><clipPath id="a01b20d1fa"><path d="M 636.75 283.5 L 803.25 283.5 C 813.394531 283.5 823.125 287.53125 830.296875 294.703125 C 837.46875 301.875 841.5 311.605469 841.5 321.75 L 841.5 488.25 C 841.5 498.394531 837.46875 508.125 830.296875 515.296875 C 823.125 522.46875 813.394531 526.5 803.25 526.5 L 636.75 526.5 C 626.605469 526.5 616.875 522.46875 609.703125 515.296875 C 602.53125 508.125 598.5 498.394531 598.5 488.25 L 598.5 321.75 C 598.5 311.605469 602.53125 301.875 609.703125 294.703125 C 616.875 287.53125 626.605469 283.5 636.75 283.5 Z M 636.75 283.5 " clip-rule="nonzero"/></clipPath><clipPath id="a86efb6abd"><path d="M 638 327.375 L 749 327.375 L 749 438 L 638 438 Z M 638 327.375 " clip-rule="nonzero"/></clipPath><clipPath id="d96e318c8b"><path d="M 718 398 L 802.582031 398 L 802.582031 482.625 L 718 482.625 Z M 718 398 " clip-rule="nonzero"/></clipPath><clipPath id="f80320a8df"><path d="M 738 398 L 802.582031 398 L 802.582031 482.625 L 738 482.625 Z M 738 398 " clip-rule="nonzero"/></clipPath></defs><rect x="-144" width="1728" fill="#ffffff" y="-80.999999" height="971.999992" fill-opacity="1"/><rect x="-144" width="1728" fill="#a6a6a6" y="-80.999999" height="971.999992" fill-opacity="1"/><g clip-path="url(#91add690f6)"><g clip-path="url(#7c5640458d)"><path fill="#ffffff" d="M 617.03125 486.707031 L 708.121094 486.707031 L 708.121094 566.292969 L 617.03125 566.292969 Z M 617.03125 486.707031 " fill-opacity="1" fill-rule="nonzero"/></g></g><g clip-path="url(#97be0cccfb)"><g clip-path="url(#a01b20d1fa)"><path fill="#ffffff" d="M 598.5 283.5 L 841.5 283.5 L 841.5 526.5 L 598.5 526.5 Z M 598.5 283.5 " fill-opacity="1" fill-rule="nonzero"/></g></g><g clip-path="url(#a86efb6abd)"><path fill="#a60e13" d="M 748.382812 374.417969 C 747.644531 369.46875 743.457031 365.992188 739.03125 366.648438 C 737.855469 366.828125 736.777344 367.28125 735.847656 367.941406 L 735.824219 367.953125 C 735.167969 368.429688 734.578125 369.007812 734.070312 369.671875 C 728.886719 374.054688 725.484375 370.523438 724.519531 369.261719 L 720.996094 345.636719 L 696.9375 349.21875 C 695.175781 348.414062 691.804688 346.054688 694.234375 340.394531 C 694.726562 339.722656 695.109375 338.992188 695.371094 338.214844 L 695.382812 338.191406 L 695.375 338.191406 C 695.738281 337.109375 695.859375 335.945312 695.6875 334.777344 C 695.03125 330.34375 690.480469 327.347656 685.527344 328.082031 C 680.582031 328.828125 677.101562 333.007812 677.757812 337.441406 C 677.933594 338.617188 678.394531 339.6875 679.050781 340.617188 L 679.042969 340.625 L 679.066406 340.640625 C 679.542969 341.3125 680.121094 341.894531 680.785156 342.394531 C 684.761719 347.109375 682.222656 350.34375 680.769531 351.628906 L 656.710938 355.210938 L 660.15625 378.386719 L 660.089844 378.394531 C 660.089844 378.394531 658.363281 385.253906 650.90625 382.054688 C 650.234375 381.566406 649.503906 381.183594 648.734375 380.921875 L 648.703125 380.90625 C 647.621094 380.554688 646.464844 380.429688 645.289062 380.605469 C 640.855469 381.261719 637.863281 385.808594 638.601562 390.757812 C 639.339844 395.710938 643.527344 399.191406 647.953125 398.527344 C 649.128906 398.351562 650.207031 397.898438 651.136719 397.238281 L 651.160156 397.21875 C 651.824219 396.75 652.410156 396.164062 652.914062 395.5 C 659.109375 390.265625 662.753906 396.324219 662.753906 396.324219 L 662.828125 396.316406 L 666.277344 419.5 L 689.457031 416.050781 C 689.457031 416.050781 696.316406 417.769531 693.109375 425.226562 C 692.625 425.898438 692.242188 426.628906 691.984375 427.40625 L 691.96875 427.429688 L 691.976562 427.429688 C 691.613281 428.511719 691.484375 429.675781 691.664062 430.851562 C 692.324219 435.277344 696.871094 438.273438 701.816406 437.539062 C 706.769531 436.800781 710.25 432.613281 709.585938 428.179688 C 709.414062 427.003906 708.957031 425.933594 708.292969 425.003906 L 708.300781 424.996094 L 708.28125 424.980469 C 707.804688 424.316406 707.226562 423.722656 706.5625 423.226562 C 701.332031 417.03125 707.378906 413.386719 707.382812 413.378906 L 730.570312 409.925781 L 727.050781 386.300781 C 727.609375 384.808594 729.839844 380.445312 736.078125 383.125 C 736.75 383.617188 737.480469 384 738.25 384.257812 L 738.28125 384.273438 L 738.28125 384.265625 C 739.363281 384.625 740.519531 384.75 741.695312 384.574219 C 746.128906 383.917969 749.117188 379.371094 748.382812 374.417969 " fill-opacity="1" fill-rule="nonzero"/></g><path fill="#a60e13" d="M 647.953125 398.527344 C 649.128906 398.351562 650.207031 397.898438 651.136719 397.238281 L 651.160156 397.21875 C 651.824219 396.75 652.410156 396.164062 652.914062 395.5 C 659.109375 390.265625 662.753906 396.324219 662.753906 396.324219 L 662.828125 396.316406 L 666.277344 419.5 L 689.457031 416.050781 C 689.457031 416.050781 696.316406 417.769531 693.109375 425.226562 C 692.625 425.898438 692.242188 426.628906 691.984375 427.40625 L 691.96875 427.429688 L 691.976562 427.429688 C 691.613281 428.511719 691.484375 429.675781 691.664062 430.851562 C 692.324219 435.277344 696.871094 438.273438 701.816406 437.539062 C 706.769531 436.800781 710.25 432.613281 709.585938 428.179688 C 709.414062 427.003906 708.957031 425.933594 708.292969 425.003906 L 708.300781 424.996094 L 708.28125 424.980469 C 707.804688 424.316406 707.226562 423.722656 706.5625 423.226562 C 701.332031 417.03125 707.378906 413.386719 707.382812 413.378906 L 730.570312 409.925781 L 728.910156 398.757812 C 685.910156 395.925781 669.644531 371.390625 663.511719 354.191406 L 656.710938 355.210938 L 660.15625 378.386719 L 660.089844 378.394531 C 660.089844 378.394531 658.363281 385.253906 650.90625 382.054688 C 650.234375 381.566406 649.503906 381.183594 648.734375 380.921875 L 648.703125 380.90625 C 647.621094 380.554688 646.464844 380.429688 645.289062 380.605469 C 640.855469 381.261719 637.863281 385.808594 638.601562 390.757812 C 639.339844 395.710938 643.527344 399.191406 647.953125 398.527344 " fill-opacity="1" fill-rule="nonzero"/><g clip-path="url(#d96e318c8b)"><path fill="#1f2020" d="M 757.039062 407.015625 C 757.039062 407.015625 751.917969 411.890625 758.382812 416.800781 C 759.132812 417.148438 759.832031 417.59375 760.441406 418.144531 L 760.460938 418.15625 L 760.453125 418.15625 C 761.300781 418.921875 761.984375 419.867188 762.410156 420.980469 C 764.015625 425.160156 761.53125 430.007812 756.859375 431.796875 C 752.1875 433.59375 747.097656 431.660156 745.492188 427.480469 C 745.058594 426.367188 744.9375 425.210938 745.046875 424.078125 L 745.054688 424.050781 C 745.140625 423.242188 745.347656 422.4375 745.6875 421.679688 C 747.191406 413.710938 740.121094 413.515625 740.121094 413.515625 L 718.242188 421.917969 L 726.648438 443.796875 C 726.648438 443.796875 731.527344 448.917969 736.4375 442.460938 C 736.785156 441.703125 737.234375 441.003906 737.773438 440.394531 L 737.796875 440.375 L 737.796875 440.382812 C 738.5625 439.539062 739.507812 438.859375 740.621094 438.425781 C 744.800781 436.824219 749.644531 439.304688 751.4375 443.984375 C 753.234375 448.648438 751.296875 453.738281 747.117188 455.351562 C 746.007812 455.777344 744.851562 455.90625 743.71875 455.789062 L 743.6875 455.78125 C 742.878906 455.703125 742.078125 455.480469 741.3125 455.15625 C 733.339844 453.644531 733.148438 460.714844 733.148438 460.714844 L 741.550781 482.59375 L 802.222656 459.285156 L 778.925781 398.613281 L 757.039062 407.015625 " fill-opacity="1" fill-rule="nonzero"/></g><path fill="#1f2020" d="M 776 399.730469 L 778.925781 398.613281 L 776 399.730469 " fill-opacity="1" fill-rule="nonzero"/><g clip-path="url(#f80320a8df)"><path fill="#1f2020" d="M 741.550781 482.59375 L 738.324219 474.179688 C 753.585938 469.863281 785.300781 454.238281 776 399.730469 L 778.925781 398.613281 L 802.222656 459.285156 L 741.550781 482.59375 " fill-opacity="1" fill-rule="nonzero"/></g></svg>
